<svg xmlns="http://www.w3.org/2000/svg" xmlns:xlink="http://www.w3.org/1999/xlink" version="1.1" enable-background="new 0 0 512 512" width="512" height="512" style=""><rect id="backgroundrect" width="100%" height="100%" x="0" y="0" fill="none" stroke="none"/>
  
<g class="currentLayer" style=""><title>Layer 1</title><g class=""><g id="svg_1" class="" fill="#ffffff" fill-opacity="1">
    <g id="svg_2" fill="#ffffff" fill-opacity="1">
      <g id="svg_3" fill="#ffffff" fill-opacity="1">
        <g id="svg_4" fill="#ffffff" fill-opacity="1">
          <path d="m392.8973055965594,221.25890915393825 h-270.6646969079971 c-6.8087958037853245,0 -12.291985344886779,-5.4831895411014555 -12.291985344886779,-12.291985344886779 v-17.89568454623222 c-1.0703427003550531e-15,-55.675463032722476 45.251377421617505,-100.92684045433998 100.86658562421799,-100.92684045433998 h93.45524151921272 c55.61520820260048,0 100.92684045433998,45.251377421617505 100.92684045433998,100.92684045433998 v17.89568454623222 c0,6.74854097366333 -5.543444371223449,12.291985344886779 -12.291985344886779,12.291985344886779 zm-258.3727115631104,-24.644225519895553 h246.02047138810158 v-5.603699201345444 c0,-42.05787142515182 -34.2247435092926,-76.28261493444442 -76.28261493444442,-76.28261493444442 h-93.45524151921272 c-42.05787142515182,0 -76.28261493444442,34.2247435092926 -76.28261493444442,76.28261493444442 v5.603699201345444 z" id="svg_5" fill="#ffffff" fill-opacity="1"/>
        </g>
        <g id="svg_6" fill="#ffffff" fill-opacity="1">
          <path d="M365.60186755129615,385.39306640625 H149.4677919037036 c-21.812248504161836,0 -39.52716856002807,-17.71492005586624 -39.52716856002807,-39.52716856002807 v-32.65811792612076 c0,-6.8087958037853245 5.4831895411014555,-12.291985344886779 12.291985344886779,-12.291985344886779 h270.60444207787515 c6.8087958037853245,0 12.291985344886779,5.4831895411014555 12.291985344886779,12.291985344886779 v32.65811792612076 C405.18929094144625,367.67814635038377 387.414116055458,385.39306640625 365.60186755129615,385.39306640625 zM134.5245940334491,325.49976526498796 v20.366132581233977 c0,8.25491172671318 6.688286143541336,14.943197870254517 14.943197870254517,14.943197870254517 h216.13407564759254 c8.25491172671318,0 14.943197870254517,-6.688286143541336 14.943197870254517,-14.943197870254517 v-20.366132581233977 H134.5245940334491 z" id="svg_7" fill="#ffffff" fill-opacity="1"/>
        </g>
        <g id="svg_8" fill="#ffffff" fill-opacity="1">
          <path d="m122.23260868856232,285.18928391337397 c-4.33834776878357,0 -8.55618587732315,-2.2896835446357726 -10.785614591836929,-6.387011992931366 c-3.253760826587677,-5.965228182077408 -1.0845869421958925,-13.436827117204666 4.880641239881515,-16.69058794379234 l25.307028651237488,-13.858610928058624 c15.1239623606205,-8.315166556835175 33.92346935868263,-8.315166556835175 49.107686549425125,0 c7.833127915859222,4.278092938661575 17.59441039562225,4.278092938661575 25.427538311481477,0 l11.388162893056869,-6.266502332687378 c15.1239623606205,-8.315166556835175 33.98372418880462,-8.315166556835175 49.107686549425125,0 l10.544595271348953,5.784463691711426 c7.833127915859222,4.278092938661575 17.59441039562225,4.278092938661575 25.427538311481477,0 l12.352240175008774,-6.8087958037853245 c15.1239623606205,-8.315166556835175 33.92346935868263,-8.315166556835175 49.107686549425125,0 l24.764735180139542,13.617591607570649 c5.965228182077408,3.253760826587677 8.134402066469193,10.725359761714936 4.880641239881515,16.69058794379234 c-3.253760826587677,5.965228182077408 -10.725359761714936,8.134402066469193 -16.69058794379234,4.880641239881515 l-24.764735180139542,-13.557336777448654 c-7.833127915859222,-4.278092938661575 -17.59441039562225,-4.278092938661575 -25.427538311481477,0 l-12.352240175008774,6.8087958037853245 c-15.1239623606205,8.315166556835175 -33.92346935868263,8.315166556835175 -49.107686549425125,0 l-10.544595271348953,-5.784463691711426 c-7.833127915859222,-4.278092938661575 -17.59441039562225,-4.278092938661575 -25.427538311481477,0 l-11.448417723178864,6.1459926724433895 c-15.1239623606205,8.315166556835175 -33.98372418880462,8.315166556835175 -49.107686549425125,0 c-7.833127915859222,-4.278092938661575 -17.59441039562225,-4.278092938661575 -25.427538311481477,0 l-25.307028651237488,13.858610928058624 c-1.8678997337818148,1.0845869421958925 -3.9165639579296108,1.5666255831718447 -5.904973351955414,1.5666255831718447 z" id="svg_9" fill="#ffffff" fill-opacity="1"/>
        </g>
      </g>
    </g>
  </g><rect fill="#ffffff" stroke-dashoffset="" fill-rule="nonzero" id="svg_10" x="129" y="148" width="257" height="54" style="color: rgb(0, 0, 0);" class=""/><rect fill="#ffffff" stroke-dashoffset="" fill-rule="nonzero" id="svg_12" x="143" y="132" width="232" height="31" style="color: rgb(0, 0, 0);" class=""/><rect fill="#ffffff" stroke-dashoffset="" fill-rule="nonzero" id="svg_14" x="158" y="121" width="204" height="26" style="color: rgb(0, 0, 0);" class=""/><rect fill="#ffffff" stroke-dashoffset="" fill-rule="nonzero" id="svg_16" x="177" y="118" width="159" height="33" style="color: rgb(0, 0, 0);" class=""/><rect fill="#ffffff" stroke-dashoffset="" fill-rule="nonzero" id="svg_18" x="184" y="111" width="145" height="28" style="color: rgb(0, 0, 0);" class=""/><rect fill="#ffffff" stroke-dashoffset="" fill-rule="nonzero" id="svg_20" x="125" y="319" width="263" height="49" style="color: rgb(0, 0, 0);" class=""/></g></g></svg>