<svg xmlns="http://www.w3.org/2000/svg" xmlns:xlink="http://www.w3.org/1999/xlink" version="1.1" style="" xml:space="preserve" width="512" height="512"><rect id="backgroundrect" width="100%" height="100%" x="0" y="0" fill="none" stroke="none"/>


















<g class="currentLayer" style=""><title>Layer 1</title><g class="" id="svg_2"><path style="" d="M423.42488487834663,229.41531050269126 V188.79334602140997 c0,-55.85520116176202 -38.74162178189059,-101.55491120320364 -86.09249284864575,-101.55491120320364 h-21.523123212161437 V61.84970701740531 h-21.523123212161437 v25.38872780080091 H175.9089679384901 V61.84970701740531 H154.38584472632866 v25.38872780080091 H127.48194071112687 v25.38872780080091 h26.903904015201796 v13.963800290440505 C124.25347222930264,132.9381448596479 100.57803669592508,163.40461822060905 100.57803669592508,201.4877099218104 v266.58164190840955 h129.13873927296862 v-50.77745560160182 h10.761561606080718 v50.77745560160182 h129.13873927296862 V201.4877099218104 c0,-38.08309170120137 -23.675435533377584,-68.54956506216247 -53.80780803040359,-74.8967470123627 V112.62716261900712 h21.523123212161437 c17.21849856972915,0 33.360840978850234,7.616618340240273 45.19855874553902,22.84985502072082 c12.913873927296862,13.963800290440505 19.370810890945297,33.00534614104119 19.370810890945297,53.31632838168191 v40.62196448128146 c-12.913873927296862,5.077745560160182 -21.523123212161437,19.041545850600684 -21.523123212161437,35.54421892112127 c0,21.58041863068077 13.990030087904934,38.08309170120137 32.284684818242155,38.08309170120137 s32.284684818242155,-16.502673070520594 32.284684818242155,-38.08309170120137 C444.94800809050804,248.45685635329193 436.3387588056435,234.4930560628515 423.42488487834663,229.41531050269126 zM208.19365275673226,442.68062402941905 H122.10115990808652 v-25.38872780080091 h86.09249284864575 V442.68062402941905 zM208.19365275673226,264.9595294238127 v88.86054730280318 v38.08309170120137 H122.10115990808652 V226.87643772261129 h86.09249284864575 V264.9595294238127 zM122.10115990808652,201.4877099218104 c0,-27.92760058088101 19.370810890945297,-50.77745560160182 43.046246424322874,-50.77745560160182 s43.046246424322874,22.84985502072082 43.046246424322874,50.77745560160182 H122.10115990808652 zM240.4783375749744,391.9031684278172 h-10.761561606080718 v-12.694363900400456 h10.761561606080718 V391.9031684278172 zM240.4783375749744,353.82007672661587 h-10.761561606080718 V264.9595294238127 h10.761561606080718 V353.82007672661587 zM240.4783375749744,239.57080162301173 h-10.761561606080718 v-12.694363900400456 h10.761561606080718 V239.57080162301173 zM348.0939536357816,442.68062402941905 H262.00146078713584 v-25.38872780080091 h86.09249284864575 V442.68062402941905 zM348.0939536357816,391.9031684278172 H262.00146078713584 v-38.08309170120137 V264.9595294238127 v-38.08309170120137 h86.09249284864575 V391.9031684278172 zM348.0939536357816,201.4877099218104 H262.00146078713584 c0,-27.92760058088101 19.370810890945297,-50.77745560160182 43.046246424322874,-50.77745560160182 S348.0939536357816,173.5601093409293 348.0939536357816,201.4877099218104 zM294.286145605378,126.59096290944768 c-30.132372497026008,6.347181950200228 -53.80780803040359,36.81365531116132 -53.80780803040359,74.8967470123627 h-10.761561606080718 c0,-38.08309170120137 -23.675435533377584,-68.54956506216247 -53.80780803040359,-74.8967470123627 V112.62716261900712 h118.3771776668879 V126.59096290944768 zM412.6633232722659,277.65389332421313 c-6.456936963648431,0 -10.761561606080718,-5.077745560160182 -10.761561606080718,-12.694363900400456 s4.304624642432287,-12.694363900400456 10.761561606080718,-12.694363900400456 s10.761561606080718,5.077745560160182 10.761561606080718,12.694363900400456 S419.1202602359144,277.65389332421313 412.6633232722659,277.65389332421313 z" id="svg_7" class="" fill="#ffffff" fill-opacity="1"/><g id="svg_8" class="">
</g><g id="svg_9" class="">
</g><g id="svg_10" class="">
</g><g id="svg_11" class="">
</g><g id="svg_12" class="">
</g><g id="svg_13" class="">
</g><g id="svg_14" class="">
</g><g id="svg_15" class="">
</g><g id="svg_16" class="">
</g><g id="svg_17" class="">
</g><g id="svg_18" class="">
</g><g id="svg_19" class="">
</g><g id="svg_20" class="">
</g><g id="svg_21" class="">
</g><g id="svg_22" class="">
</g><rect fill="#ffffff" stroke-dashoffset="" fill-rule="nonzero" id="svg_1" x="119.92108296979524" y="224.13144408107075" width="94.64131700510279" height="169.95807288867582" style="color: rgb(0, 0, 0);" class=""/><rect fill="#ffffff" stroke-dashoffset="" fill-rule="nonzero" id="svg_3" x="146.75967092552065" y="307.44422944064684" width="15.538126370525674" height="0" style="color: rgb(0, 0, 0);" class=""/><rect fill="#ffffff" stroke-dashoffset="" fill-rule="nonzero" id="svg_5" x="259.7642193411496" y="225.79771442595631" width="94.64131700510279" height="174.95684540308503" style="color: rgb(0, 0, 0);" class=""/><rect fill="#ffffff" stroke-dashoffset="" fill-rule="nonzero" id="svg_23" x="256.9391056307589" y="182.47507066140645" width="94.64131700510279" height="36.6576225728943" style="color: rgb(0, 0, 0);" class=""/><rect fill="#ffffff" stroke-dashoffset="" fill-rule="nonzero" id="svg_25" x="266.8270190311535" y="162.47999986389334" width="73.45296417717236" height="39.990134372479815" style="color: rgb(0, 0, 0);" class=""/><rect fill="#ffffff" stroke-dashoffset="" fill-rule="nonzero" id="svg_27" x="276.71490160349396" y="149.14995266555127" width="63.56506233729806" height="33.325113180824246" style="color: rgb(0, 0, 0);" class=""/><rect fill="#ffffff" stroke-dashoffset="" fill-rule="nonzero" id="svg_29" x="256.9391056307589" y="400.75455982904134" width="94.64131700510279" height="41.65638786475711" style="color: rgb(0, 0, 0);" class=""/><rect fill="#ffffff" stroke-dashoffset="" fill-rule="nonzero" id="svg_31" x="125.57131039057668" y="155.8149762647223" width="88.99108958432134" height="88.31154824392343" style="color: rgb(0, 0, 0);" class=""/><rect fill="#ffffff" stroke-dashoffset="" fill-rule="nonzero" id="svg_33" x="119.92108296979524" y="184.14132174616827" width="15.538126370525674" height="21.661321882274933" style="color: rgb(0, 0, 0);" class=""/><rect fill="#ffffff" stroke-dashoffset="" fill-rule="nonzero" id="svg_35" x="114.27085554901379" y="180.8088003165209" width="14.125569515330312" height="16.662556590412123" style="color: rgb(0, 0, 0);" class=""/><rect fill="#ffffff" stroke-dashoffset="" fill-rule="nonzero" id="svg_37" x="115.68341240420915" y="402.42079165367943" width="97.46643071549352" height="44.988899664342625" style="color: rgb(0, 0, 0);" class=""/><rect fill="#ffffff" stroke-dashoffset="" fill-rule="nonzero" id="svg_39" x="141.1094435047392" y="145.81743123590388" width="55.08972120612589" height="29.992601381238728" style="color: rgb(0, 0, 0);" class=""/></g></g></svg>